<?xml version="1.0" encoding="UTF-8"?>
<svg version="1.1" viewBox="0 0 310 90" xmlns="http://www.w3.org/2000/svg" xmlns:xlink="http://www.w3.org/1999/xlink">
    <title>Slice 2 Copy</title>
    <desc>Created with Sketch.</desc>
    <g fill="none" fill-rule="evenodd">
        <g transform="translate(2)">
            <polygon points="172.41 27.057 191.94 27.057 191.94 24.269 172.41 24.269" fill="white"></polygon>
            <polygon points="233.23 13.639 247.1 13.639 247.1 10.85 233.23 10.85" fill="white"></polygon>
            <polygon points="233.23 19.215 247.1 19.215 247.1 16.427 233.23 16.427" fill="white"></polygon>
            <polygon points="269.76 16.428 281.57 16.428 281.57 13.639 269.76 13.639" fill="white"></polygon>
            <polygon points="285.44 16.428 302.76 16.428 302.76 13.64 285.44 13.64" fill="white"></polygon>
            <polygon points="238.77 44.275 241.56 44.275 241.56 13.639 238.77 13.639" fill="white"></polygon>
            <polygon points="260.52 44.763 263.31 44.763 263.31 10.85 260.52 10.85" fill="white"></polygon>
            <polygon points="292.71 25.384 295.49 25.384 295.49 10.85 292.71 10.85" fill="white"></polygon>
            <polygon points="285.75 25.384 302.42 25.384 302.42 22.596 285.75 22.596" fill="white"></polygon>
            <polygon points="213.64 13.639 213.64 10.85 210.85 10.85 210.85 13.639 195.55 13.639 195.55 16.428 210.85 16.428 213.64 16.428 228.94 16.428 228.94 13.639" fill="white"></polygon>
            <polygon points="233.23 37.32 236.02 37.32 236.02 22.038 233.23 22.038" fill="white"></polygon>
            <polygon points="244.31 37.862 247.1 37.862 247.1 22.038 244.31 22.038" fill="white"></polygon>
            <polygon points="162.58 57.799 179.59 57.799 179.59 55.011 162.58 55.011" fill="white"></polygon>
            <polygon points="246.99 57.66 267.63 57.66 267.63 54.871 246.99 54.871" fill="white"></polygon>
            <polygon points="273.41 86.727 276.2 86.727 276.2 54.872 273.41 54.872" fill="white"></polygon>
            <polygon points="256.25 86.727 259.04 86.727 259.04 54.872 256.25 54.872" fill="white"></polygon>
            <polygon points="238.42 86.727 241.21 86.727 241.21 54.872 238.42 54.872" fill="white"></polygon>
            <polygon points="203.39 54.871 203.39 68.743 188.33 68.743 188.33 54.871 185.55 54.871 185.55 71.531 188.19 71.531 188.33 71.531 203.39 71.531 203.39 86.726 206.18 86.726 206.18 54.871" fill="white"></polygon>
            <polygon points="161.82 86.727 179.59 86.727 179.59 83.94 161.82 83.94" fill="white"></polygon>
            <polygon points="158.96 71.531 161.74 71.531 161.74 59.123 158.96 59.123" fill="white"></polygon>
            <polygon points="284.74 54.871 281.99 54.871 281.99 71.67 284.78 71.67 284.78 60.538 299.71 86.734 299.84 86.661 299.84 86.726 302.62 86.726 302.62 54.871 299.84 54.871 299.84 81.324 284.78 54.905 284.78 54.871 284.76 54.871 284.75 54.864" fill="white"></polygon>
            <g transform="translate(0 .5511)">
                <path d="m169.63 39.96v-13.454-2.788-13.388h-2.787v13.388h-7.799v2.788h7.799v13.454s-0.404 4.369 5.543 4.369v-2.766s-2.756 0.047-2.756-1.603" fill="white"></path>
                <path d="m172.41 18.234s13.1-2.332 19.527-7.904v3.118s-4.353 3.764-19.527 7.528v-2.742z" fill="white"></path>
                <path d="m191.94 36.941s-13.1-2.331-19.527-7.903v3.117s4.353 3.764 19.527 7.529v-2.743z" fill="white"></path>
                <path d="m222.95 23.701h-0.662-19.57-0.663v-2.266h0.663 19.57 0.662v2.266zm2.778-2.37c-0.091-2.588-3.44-2.684-3.44-2.684h-19.57s-3.351 0.096-3.443 2.684h-9e-3v2.37c0 2.695 3.452 2.788 3.452 2.788h19.57s3.449-0.093 3.449-2.788v-2.37h-9e-3z" fill="white"></path>
                <path d="m225.4 29.263v-3e-3h-0.114c-0.038-1e-3 -0.066 0-0.066 0h-25.578v0.074l-0.053-0.074s-3.158-0.105-3.158 2.788v2.788h2.719v-2.219s-0.023-0.569 0.439-0.569l0.053-0.096v0.096h25.578c0.465 0 0.442 0.569 0.442 0.569v2.219h2.718v-2.788c0-2.48-2.318-2.756-2.98-2.785" fill="white"></path>
                <path d="m222.95 37.625v-2.789h-20.865v2.789h8.769v3.904c0 0.465-0.568 0.441-0.568 0.441h-2.219v2.718h2.787c2.895 0 2.789-3.159 2.789-3.159v-3.904h9.307z" fill="white"></path>
                <path d="m277.06 41.051v-30.752h-2.787v30.752c0 0.466-0.57 0.442-0.57 0.442h-2.219v2.719h2.789c2.892 0 2.787-3.161 2.787-3.161" fill="white"></path>
                <polygon points="250.55 10.3 250.55 13.088 257.73 16.468 257.73 13.75" fill="white"></polygon>
                <polygon points="250.44 21.453 250.44 24.241 257.62 27.622 257.62 24.903" fill="white"></polygon>
                <path d="m93.918 20.896s-20.287-3.028-23.607-20.054v-0.393c-0.012 0.067-0.03 0.13-0.042 0.197-0.013-0.067-0.031-0.13-0.042-0.197v0.393c-3.321 17.026-23.608 20.054-23.608 20.054-20.912 3.252-31.043-11.804-31.043-11.804 9.946 26.21 27.367 25.283 27.367 25.283h27.284 0.084 27.283s17.422 0.927 27.367-25.283c0 0-10.131 15.056-31.043 11.804" fill="white"></path>
                <g transform="translate(0 43)">
                    <mask id="d" fill="white">
                        <polygon points="0 0.2172 0 44 141.14 44 141.14 0.2172"></polygon>
                    </mask>
                    <path d="m101.09 26.603s-26.173-3.907-30.461-25.874v-0.512c-0.016 0.088-0.039 0.169-0.055 0.256-0.015-0.087-0.039-0.168-0.054-0.256v0.512c-4.288 21.967-30.461 25.874-30.461 25.874-26.987 4.197-40.057-15.232-40.057-15.232 12.832 33.819 35.313 32.624 35.313 32.624h35.205 0.109 35.203s22.483 1.195 35.315-32.624c0 0-13.073 19.429-40.057 15.232" fill="white" mask="url(#d)"></path>
                </g>
                <path d="m292.31 32.718s-2.691-3.18-3.822-7.885l-2.731-2.788h-0.312s-0.313 5.582 5.037 12.497c0 0 1.377-0.839 1.828-1.824" fill="white"></path>
                <g transform="translate(285 22)">
                    <mask id="c" fill="white">
                        <polygon points="17.764 0.0452 17.764 22.212 0.4392 22.212 0.4392 0.0452"></polygon>
                    </mask>
                    <path d="m15.118 18.435c-2.131-1.65-4.253-3.666-4.253-3.666l-8e-3 1e-3c7.18-7.889 6.905-14.725 6.905-14.725h-0.348l-2.697 2.788c-2.416 10.363-14.278 17.37-14.278 17.37l1.407 2.009c2.925-1.865 5.306-3.769 7.255-5.64v7e-3s4.11 3.787 7.256 5.633l1.407-2.009s-1.168-0.747-2.646-1.768" fill="white" mask="url(#c)"></path>
                </g>
                <path d="m281.57 22.046v3.101s-8.408 4.064-11.814 5.385v-2.785s7.191-3.053 11.814-5.701" fill="white"></path>
                <path d="m265.8 29.548v2.763s-5.582 2.189-15.25 4.583v-2.825s4.291-0.736 15.25-4.521" fill="white"></path>
                <path d="m233.23 36.769v2.912s2.195-0.162 2.789-0.227v-2.685h-2.789z" fill="white"></path>
                <path d="m244.31 35.338v2.887s2.051-0.398 2.787-0.556v-2.832l-2.787 0.501z" fill="white"></path>
                <path d="m162.58 57.248s-0.836 0.163-0.836 1.324l-1.859 0.837-0.93-0.837s-0.418-4.112 3.625-4.112" fill="white"></path>
                <polygon points="232.63 86.176 224.22 54.32 223.26 54.32 221.34 54.32 220.37 54.32 211.96 86.176 214.85 86.176 222.3 57.953 229.75 86.176" fill="white"></polygon>
            </g>
        </g>
    </g>
</svg>